<svg xmlns="http://www.w3.org/2000/svg" viewBox="0 0 64 64" fill="none">
  <rect x="14" y="16" width="36" height="30" rx="6" fill="#4B5563"/>
  <rect x="22" y="24" width="8" height="8" rx="2" fill="#F9FAFB"/>
  <rect x="34" y="24" width="8" height="8" rx="2" fill="#F9FAFB"/>
  <path d="M26 40h12" stroke="#F9FAFB" stroke-width="4" stroke-linecap="round"/>
  <path d="M32 10v6" stroke="#4B5563" stroke-width="4" stroke-linecap="round"/>
  <circle cx="32" cy="8" r="4" fill="#4B5563"/>
  <path d="M10 28h4v10h-4a6 6 0 0 1-6-6v-2a6 6 0 0 1 6-6z" fill="#9CA3AF"/>
  <path d="M50 28h4a6 6 0 0 1 6 6v2a6 6 0 0 1-6 6h-4V28z" fill="#9CA3AF"/>
  <path d="M22 46v6l-4 4" stroke="#4B5563" stroke-width="4" stroke-linecap="round"/>
  <path d="M42 46v6l4 4" stroke="#4B5563" stroke-width="4" stroke-linecap="round"/>
</svg>
